<svg xmlns="http://www.w3.org/2000/svg" xmlns:xlink="http://www.w3.org/1999/xlink" xmlns:svg="http://www.w3.org/2000/svg"><symbol id="icon-close" viewBox="0 0 15 15">
<path d="M1 1L7.5 7.5M14 14L7.5 7.5M7.5 7.5L14 1L1 14" stroke="#011C40" stroke-width="2"/>
</symbol><symbol id="icon-logo">
 <g class="layer">
  <title>Layer 1</title>
  <path class="page-header__path" clip-rule="evenodd" d="m0.90352,31.125l13.76908,-18.5821l3.7669,2.0131l8.9631,-14.556l5.5853,6.65881l2.0786,-1.70349l8.0534,10.22018l5.7156,-6.81359l15.9771,22.76309l-15.3926,-19.3561l-2.3383,8.1295l2.1433,6.4265l-13.769,-18.96932l-0.1491,6.47232l7.813,17.2971l-14.6135,-26.78926l4.2218,14.47876l-5.9101,-14.09158l-3.2475,9.36868l0.6492,-6.11688l-8.1185,22.06638l0.974,-9.2911l-3.3772,-3.7162l-12.79458,14.0912z" fill="#F9FBFD" fill-rule="evenodd" id="svg_1"/>
  <path class="page-header__path" clip-rule="evenodd" d="m69.4414,34.0314c-21.8004,-17.6034 -55.7323,6.5975 -69.4414,-2.7353c15.0723,13.2254 50.3019,-9.1317 69.4414,2.7353z" fill="#F9FBFD" fill-rule="evenodd" id="svg_2"/>
  <path class="page-header__path" clip-rule="evenodd" d="m70,35.4157c-17.1044,-10.8986 -42.5432,4.2681 -55.5811,0.756c14.1278,6.8566 40.4293,-8.3356 55.5811,-0.756z" fill="#F9FBFD" fill-rule="evenodd" id="svg_3"/>
 </g>
</symbol><symbol id="icon-mark" viewBox="0 0 12 8">
<path d="M1 2.5L5.28571 7L11 1" stroke="#101A56"/>
</symbol><symbol id="icon-open" viewBox="0 0 24 14">
<path d="M0 1H24M0 7H24M0 13H24" stroke="#F9FBFD" stroke-width="2"/>
</symbol></svg>